<svg xmlns="http://www.w3.org/2000/svg"
 xmlns:xlink="http://www.w3.org/1999/xlink"
 width="57px" height="64px"  viewBox="0 0 57 64">
<path fill-rule="evenodd"  fill="#42b3e5"
 d="M14.827148,36.601475 C15.251587,37.758457 16.217636,38.69467 17.50177,39.02082 C18.567947,39.293167 19.62526,39.41767 20.670364,39.41478 C20.617706,41.41771 20.327133,44.37397 19.299454,47.73197 C18.3237,50.923225 19.187302,54.226982 21.670914,56.797287 C25.330246,60.58593 31.57898,62.115974 37.22197,60.603943 C41.09645,59.565903 44.064728,56.857315 45.57547,52.979958 C47.73625,47.433388 46.657593,40.39257 42.69101,34.149895 C39.013504,28.360989 40.76346,24.279316 42.130554,22.359093 C43.93039,23.35511 46.100586,23.685707 48.245056,23.110996 C52.642227,21.932674 55.252167,17.411911 54.073654,13.013649 C52.89514,8.615387 48.374832,6.006176 43.977646,7.1845016 C39.58029,8.3628235 36.970367,12.883587 38.14859,17.28096 C38.31453,17.899914 38.55345,18.479073 38.84189,19.021992 C36.17537,22.334858 33.812103,28.818756 38.77597,36.636158 C41.90674,41.564888 42.857407,47.180824 41.253616,51.29518 C40.574127,53.041992 39.113434,55.297035 36.020905,56.12564 C32.019836,57.197693 27.489822,56.1501 25.006104,53.577126 C24.08937,52.62735 23.126114,51.077744 23.7341,49.086823 C25.092346,44.64254 25.330994,40.770523 25.313644,38.447662 C26.582016,37.894073 27.758484,37.12194 28.822418,36.126587 C29.770584,35.239067 30.163315,33.987373 30.003357,32.79193 C33.988953,26.626404 34.122635,17.405464 34.127014,16.86699 C34.134842,15.762257 33.368088,14.835381 32.334076,14.596382 C31.338196,7.968197 28.088303,5.364546 26.297699,4.427889 C26.240555,3.7804775 25.817413,3.1853123 25.178192,2.9769936 C25.178192,2.9769936 22.076813,1.9585209 22.076813,1.9585209 C21.266525,1.6932869 20.460617,2.1526108 20.279404,2.9881096 C20.279404,2.9881096 19.67308,5.756504 19.67308,5.756504 C19.490738,6.5917816 20.034698,7.2854347 20.888412,7.3065567 C20.888412,7.3065567 24.10904,7.387039 24.10904,7.387039 C24.926132,7.4070473 25.735107,6.8027687 25.985962,6.025074 C27.51117,6.959507 29.971558,9.289921 30.807297,14.769352 C30.03775,15.141525 29.499588,15.918774 29.491653,16.831642 C29.465088,19.597366 28.81897,25.469646 26.597687,29.480839 C25.517426,29.365452 24.397003,29.685379 23.54132,30.484417 C22.984512,31.005993 22.395432,31.351707 21.746338,31.539574 C21.746338,31.539574 21.611908,31.575813 21.611908,31.575813 C20.920486,31.745445 20.197083,31.731438 19.406662,31.531345 C18.286407,31.245213 17.164871,31.494663 16.27945,32.101833 C12.415039,29.705833 8.993515,25.045006 7.6080627,22.695473 C7.1448364,21.911331 6.2884064,21.506699 5.4384155,21.568283 C3.4214783,16.40522 4.3862305,13.156826 5.2415314,11.58432 C5.848221,12.132351 6.85054,12.251961 7.547653,11.825764 C7.547653,11.825764 10.296387,10.145428 10.296387,10.145428 C11.02417,9.701 11.1502075,8.826149 10.574005,8.195858 C10.574005,8.195858 8.665665,6.100666 8.665665,6.100666 C8.090012,5.4685936 7.162369,5.473484 6.594452,6.108223 C6.594452,6.108223 4.4142914,8.542686 4.4142914,8.542686 C3.966629,9.042473 3.8971863,9.76992 4.171814,10.358639 C3.0913696,12.06432 1.5766144,15.9441185 4.0276947,22.18301 C3.2524567,22.907124 3.0522156,24.092785 3.6107178,25.046783 C3.8793793,25.501438 8.458054,33.16655 14.827148,36.601475 ZM45.277725,12.036083 C46.994675,11.576313 48.761505,12.595009 49.221924,14.313805 C49.68245,16.032158 48.66176,17.797646 46.944717,18.257858 C45.22673,18.718292 43.46083,17.699375 43.00032,15.980579 C42.5399,14.262226 43.559647,12.4969635 45.277725,12.036083 Z"/>
</svg>